<?xml version="1.0" encoding="UTF-8"?>
<svg id="Layer_1" data-name="Layer 1" xmlns="http://www.w3.org/2000/svg" viewBox="0 0 402 265.35">
  <path d="M159.5,70.25v124.86h-31.58V70.25h31.58m6-6h-43.58V201.11h43.58V64.25h0Z"/>
  <g>
    <path d="M68.74,198.11h-.68c-35.88-.2-65.06-29.55-65.06-65.43s29.19-65.23,65.06-65.42h.88s23.63,0,23.63,0V198.11h-23.83Z"/>
    <path d="M89.57,70.25v124.86h-21.49c-16.6-.1-32.2-6.63-43.91-18.4-11.72-11.78-18.17-27.41-18.17-44.03s6.45-32.25,18.17-44.03c11.71-11.77,27.31-18.31,43.91-18.4h.75s20.74,0,20.74,0m6-6h-27.52C30.43,64.46,0,95.01,0,132.68H0c0,37.66,30.43,68.22,68.05,68.42h0s27.52,0,27.52,0V64.25h0Z"/>
  </g>
  <path d="M361.8,6c18.86,0,34.2,15.38,34.2,34.28V225.08c0,18.9-15.34,34.28-34.2,34.28-4.27,0-8.51-.81-12.59-2.42l-152.07-59.91V68.33L349.21,8.42c4.08-1.61,8.31-2.42,12.59-2.42h0M361.8,0c-4.87,0-9.87,.9-14.79,2.84l-155.87,61.41V201.11l155.87,61.41c4.92,1.94,9.91,2.84,14.79,2.84,21.27,0,40.2-17.19,40.2-40.28V40.28C402,17.19,383.08,0,361.8,0h0Z"/>
</svg>