<?xml version="1.0" encoding="UTF-8"?>
<svg id="Layer_2" data-name="Layer 2" xmlns="http://www.w3.org/2000/svg" viewBox="0 0 712.89 1231.7">
  <ellipse cx="288.16" cy="398.37" rx="91.14" ry="94.21"/>
  <path d="M666,229.51c-34.78-16.81-83.11,14.07-107.94,68.97-23.14,51.17-17.7,105.13,11.3,125.84l-59.06,130.58-46,.44c-28.35,.27-56.72-3.1-84.29-10.02l-54.37-13.64c-.63-.08-1.27-.13-1.9-.19-12.89-7.3-25.62-9.11-37.89-6.34-17.31-4.69-40.07,4.17-56.69,23.77l-58.97,58.46c-25.94,25.71-49.42,54.25-69.73,84.76l-26.64,40.01c-21.12,24.91-24.31,57.71-7.14,73.26h0c17.17,15.56,48.21,7.98,69.33-16.93l35.55-51.85c2.88-4.2,5.83-8.36,8.83-12.48-4.69,34.84-5.16,65.07-1.85,89.91-2.36,5.11-3.77,10.78-3.99,16.79l-2.33,64.44c-1.25,34.56-18.25,66.47-45.84,86.04l-96.02,68.1c-22.69,16.09-28.46,48.14-12.89,71.59h0c15.57,23.45,46.57,29.42,69.26,13.33l44.93-31.87s0,0,0,0c101.26-71.49,130.35-153.26,138.48-199.99,18.8,24.39,26.72,56.09,21.42,87.09l-20.26,118.54c-4.79,28,13.3,54.72,40.39,59.66h0c27.09,4.95,52.94-13.74,57.72-41.75l9.48-55.47s0,0,0,0c24.03-138.91-23.4-220.78-49.61-253.89l-14.62-15.99c4.31-20.42,8.47-45.06,13.2-74.7,6.86-42.94,16.58-75.39,23.24-101.03l28.9,6.88c28.23,6.72,57.23,9.73,86.15,8.95l37.92-1.03c25.59,3.15,48.52-13.29,51.23-36.73h0c2.25-19.54-10.28-37.77-29.34-45.11l57.35-126.81c33.97,9.72,77.52-20.58,100.66-71.74,24.83-54.9,16.76-113.03-18.02-129.84Zm6.5,124.27c-20.29,44.86-59.77,70.09-88.19,56.36-28.42-13.73-35.01-61.23-14.73-106.09,20.29-44.86,59.77-70.09,88.19-56.36,28.42,13.73,35.01,61.23,14.73,106.09Z"/>
</svg>