<?xml version="1.0" encoding="UTF-8"?>
<svg id="Layer_2" data-name="Layer 2" xmlns="http://www.w3.org/2000/svg" viewBox="0 0 712.89 1231.7">
  <circle cx="381.95" cy="393.17" r="99.59"/>
  <path d="M647.42,299.16c-49.03-13.25-101.65,23.66-117.53,82.43-14.8,54.77,7.55,109.2,50.34,127.08l-41.56,153.82-24.08-18.19c-24.72-18.67-47.11-40.41-66.51-64.57l-38.27-47.67c-8.78-8.6-19.53-13.73-30.31-15.3-5.42-5.93-13.72-10.94-25.81-15.19-19.23-6.77-39.05-3.73-57.85,6.7-1.19,.42-2.39,.87-3.58,1.36l-46.93,12.7c-35.79,9.68-70.67,23.34-103.6,40.57l-74.86,39.18c-30.64,12.57-47.7,41.72-38.1,65.11h0c9.6,23.39,42.21,32.17,72.85,19.6l63.24-33.92c14.94-8.01,30.3-15.28,45.98-21.78-8.79,28.61-13.89,59.86-13.89,91.68,0,55.51,14.55,98,36.08,126.73l-8.39,88.25h0s-2.44,25.64-2.44,25.64c-4.46,16.26-15.9,36.36-44.45,48.07,0,0,0,0,0,0l-113.04,46.36c-27.81,11.41-41.11,43.2-29.7,71.02h0c11.41,27.81,43.2,41.11,71.02,29.7l112.32-46.07s0,0,0,0c88.52-36.31,109.02-120.55,113.74-154.64,.47-4.91,.93-9.81,1.4-14.72h0s0,0,0,0c.46-4.89,.93-9.78,1.39-14.67,.83-8.68,1.65-17.36,2.48-26.05l16.01,7.77c32.89,15.97,56.27,46.56,63.06,82.48l23.61,125.03c5.58,29.54,34.04,48.97,63.58,43.39h0c29.54-5.58,48.97-34.04,43.39-63.58l-11.05-58.51s0,0,0,0c-27.37-146.64-106.45-209.26-145.62-231.88l-22.54-10.94h0s-7.18-3.49-7.18-3.49c-2.17-21.46-4.17-47.72-4.17-80.07,0-34.97,5.44-64.56,11.81-89.67l24.07,29.26c20.11,24.44,43.28,46.3,68.82,64.92l33.5,24.42c20.12,19.7,50.58,21.21,68.04,3.38h0c17.45-17.83,15.29-48.25-4.83-67.95l-1.58-1.19,43.7-161.77c45.98,6.11,92.69-29.66,107.49-84.44,15.88-58.77-11-117.15-60.03-130.4Zm43.79,126.01c-12.97,48.02-55.97,78.18-96.03,67.35-40.06-10.82-62.02-58.53-49.05-106.55s55.97-78.17,96.03-67.35c40.06,10.82,62.02,58.53,49.05,106.55Z"/>
</svg>