<?xml version="1.0" encoding="UTF-8"?>
<svg id="Layer_1" data-name="Layer 1" xmlns="http://www.w3.org/2000/svg" viewBox="0 0 712.89 1231.7">
  <path d="M420.24,991.92c-4.36-2.17-6.86-.5-9.32,.56-62.11,26.77-126.66,27.16-192.06,17.62-10.67-1.56-21.09-4.43-29.72-11.82-21.79-18.66-22.9-53.36-3.05-79.14,17.16-22.29,40.04-25.08,65.69-22.07,39.81,4.67,78.85,2.87,116.52-13.54,13.96-6.08,20.32-14.41,20.87-29.62,2.17-60.73-2.17-120.65-19.03-179.35-2.04-7.12-4.31-9.78-12.31-8.46-40.26,6.65-80.93,9.8-121.59,12.92-5.57,.43-11.24,.56-16.68,1.72-32.34,6.92-54.37-10.19-58.87-42.43-6.12-43.84-8.8-88.29-6.07-132.79,1.89-30.79,4.34-61.44,13.17-91.2,.57-1.92,.55-4.2,1.63-5.74,11.07-15.83,5.98-31.55,.67-47.76-12.32-37.61-24.01-75.44-35.95-113.18-1.7-5.36-2.66-10.95-10.89-9.54-23.88,4.1-44.74-3.74-64.59-16.43C6.65,188.44-15.41,111.37,11.56,55.87,37.52,2.44,90.09-14.6,143.29,13.17c66.57,34.75,88,133.06,41.8,192.1-6.7,8.56-14.77,15.69-24.53,20.7-5.48,2.81-8.67,5.95-6.37,13.21,13.39,42.31,26.58,84.69,39.24,127.22,2.93,9.83,7.99,12.13,17.55,10.86,30.32-4.02,55.69,29.01,50.15,53.05-8.44,36.61-14.92,73.71-12.73,111.69,.66,11.55,.74,23.14,.69,34.71-.03,6.31,3.12,7.69,8.38,6.56,25.91-5.57,52.51-4.92,78.61-8.91,8.18-1.25,13.18-4.39,17.15-12.34,18.14-36.38,46.28-57.35,88.83-54.89,14.91,.86,28.42,5.14,39.65,14.89,5.41,4.7,9.45,5.16,15.77,1.58,44.94-25.46,88.18-53.51,129.81-84.07,6.77-4.97,13.63-9.83,20.7-14.36,18.12-11.61,37.62-8.62,51.69,7.66,18.28,21.15,17.82,52.61-2.84,71.5-25.44,23.27-54.95,41.27-83.76,60-22.79,14.81-45.67,29.6-70.01,41.83-7.84,3.94-9.28,8.83-6.59,17.48,20.6,66.19,29.75,133.87,27.38,203.33-1.49,43.67-5.43,87.05-12.71,129.98-15.12,89.08-58.04,161.72-131.99,214.93-38.8,27.92-81.73,46.79-128.2,57.8-27.81,6.59-52.45-3.2-64.87-26.13-13.4-24.73-9.84-56.59,8.15-73.36,6.91-6.44,15.14-10.45,24.18-12.69,45.47-11.27,86.35-31.13,120.4-63.91,18.3-17.61,30.76-38.94,41.44-61.68h-.02ZM20.22,117.34c.8,24.95,12.67,51.37,33.54,73.78,30.66,32.92,92.22,44.78,123.51-10.78,27.22-48.32,7.72-118.76-39.47-148.07C108.23,13.91,54.63,13.56,31.63,61.63c-7.62,15.92-11.37,32.25-11.41,55.71Z"/>
  <path d="M533.88,388.69c1.43,58.13-40.29,102.87-99.02,104.05-51.54,1.04-98.81-37.21-100.75-98.77-1.7-54,42.4-99.1,97.83-100.36,54.33-1.24,100.63,41.95,101.94,95.09h0Z"/>
</svg>