<?xml version="1.0" encoding="UTF-8"?>
<svg id="Layer_1" data-name="Layer 1" xmlns="http://www.w3.org/2000/svg" viewBox="0 0 402 265.35">
  <g>
    <rect x="122.92" y="65.25" width="41.58" height="134.86"/>
    <path d="M163.5,66.25V199.11h-39.58V66.25h39.58m2-2h-43.58V201.11h43.58V64.25h0Z"/>
  </g>
  <g>
    <path d="M68.52,200.11h-.47C31.08,199.9,1,169.65,1,132.68S31.08,65.46,68.05,65.25h.89s25.63,0,25.63,0V200.11h-26.05Z"/>
    <path d="M93.57,66.25V199.11h-25.51c-17.67-.1-34.26-7.05-46.72-19.58-12.47-12.53-19.34-29.17-19.34-46.85s6.87-34.32,19.34-46.85c12.46-12.53,29.06-19.48,46.72-19.58h.61s24.9,0,24.9,0m2-2h-27.52C30.43,64.46,0,95.01,0,132.68H0c0,37.66,30.43,68.22,68.05,68.42h0s27.52,0,27.52,0V64.25h0Z"/>
  </g>
  <g>
    <path d="M361.8,264.35c-4.9,0-9.75-.93-14.42-2.77l-155.24-61.16V64.93L347.38,3.77c4.67-1.84,9.52-2.77,14.42-2.77,21.61,0,39.2,17.62,39.2,39.28V225.08c0,21.66-17.58,39.28-39.2,39.28Z"/>
    <path d="M361.8,2c21.06,0,38.2,17.17,38.2,38.28V225.08c0,21.11-17.14,38.28-38.2,38.28-4.78,0-9.51-.91-14.05-2.7l-154.6-60.91V65.61L347.75,4.7c4.55-1.79,9.28-2.7,14.06-2.7h0M361.8,0c-4.87,0-9.87,.9-14.79,2.84l-155.87,61.41V201.11l155.87,61.41c4.92,1.94,9.91,2.84,14.79,2.84,21.27,0,40.2-17.19,40.2-40.28V40.28C402,17.19,383.08,0,361.8,0h0Z"/>
  </g>
</svg>